<?xml version="1.0" standalone="no"?>
<!DOCTYPE svg PUBLIC "-//W3C//DTD SVG 20010904//EN"
 "http://www.w3.org/TR/2001/REC-SVG-20010904/DTD/svg10.dtd">
<svg version="1.0" xmlns="http://www.w3.org/2000/svg"
 width="933.000000pt" height="933.000000pt" viewBox="0 0 933.000000 933.000000"
 preserveAspectRatio="xMidYMid meet">
<metadata>
Created by potrace 1.11, written by Peter Selinger 2001-2013
</metadata>
<g transform="translate(0.000000,933.000000) scale(0.100000,-0.100000)"
fill="#000000" stroke="none">
<path d="M2650 9320 c-30 -4 -80 -11 -110 -14 -91 -12 -318 -71 -425 -111
-191 -71 -448 -214 -585 -324 -24 -20 -56 -45 -69 -56 -14 -11 -54 -47 -90
-80 -59 -55 -80 -77 -164 -168 -31 -34 -197 -254 -197 -261 0 -2 -19 -35 -42
-72 -123 -203 -246 -537 -274 -744 -3 -25 -8 -47 -9 -50 -22 -36 -26 -489 -6
-625 40 -276 139 -577 255 -775 20 -34 36 -63 36 -65 0 -11 111 -169 175 -250
198 -249 441 -447 729 -594 623 -318 1353 -325 1979 -19 55 27 123 64 153 83
30 19 59 35 64 35 6 0 10 5 10 10 0 6 5 10 11 10 6 0 62 38 124 85 123 92 297
259 385 368 l55 69 3 -557 c1 -306 1 -804 0 -1106 l-3 -550 -40 52 c-78 102
-288 305 -406 392 -195 145 -419 259 -662 338 -101 33 -302 75 -397 84 -36 4
-76 8 -90 11 -33 5 -347 6 -385 0 -16 -2 -57 -7 -90 -11 -32 -4 -68 -9 -80
-11 -11 -2 -33 -7 -50 -10 -16 -3 -73 -16 -127 -29 -487 -124 -949 -440 -1247
-854 -193 -268 -332 -597 -387 -911 -2 -14 -6 -34 -9 -45 -19 -92 -27 -456
-12 -585 26 -229 90 -464 179 -660 45 -100 54 -118 101 -200 128 -222 318
-450 497 -596 42 -34 54 -44 76 -63 9 -8 65 -47 125 -86 307 -206 640 -325
1019 -365 78 -8 407 -5 472 4 30 4 102 16 129 21 9 2 32 6 50 9 146 24 380
106 564 197 97 49 320 191 380 244 17 14 55 47 85 73 73 64 197 193 259 271
l51 64 0 -447 0 -446 222 2 223 3 1 1185 c1 1234 2 1282 45 1490 94 464 326
838 660 1066 253 172 546 255 878 249 69 -1 147 -6 171 -10 25 -3 59 -9 75
-11 17 -3 41 -7 55 -9 41 -6 191 -51 247 -74 479 -192 814 -627 932 -1211 11
-52 23 -122 26 -155 4 -33 9 -76 12 -95 2 -19 6 -570 7 -1225 2 -655 4 -1193
5 -1197 0 -5 100 -8 221 -8 l221 0 -4 1232 c-2 678 -6 1249 -10 1268 -6 34
-11 67 -22 157 -15 121 -83 371 -140 517 -255 650 -766 1097 -1400 1225 -168
33 -255 41 -455 41 -217 0 -305 -11 -502 -61 -382 -98 -708 -307 -961 -616
-28 -35 -53 -63 -56 -63 -4 0 -6 466 -6 1036 l0 1036 25 -29 c14 -16 50 -58
80 -93 321 -372 752 -620 1260 -725 17 -3 91 -15 130 -20 120 -16 386 -23 455
-11 17 3 61 8 100 11 38 3 88 10 110 15 22 5 56 12 75 15 53 9 205 53 300 87
233 83 532 260 695 409 22 21 57 53 79 72 l38 35 -157 157 -157 157 -31 -29
c-66 -61 -84 -77 -157 -132 -234 -178 -512 -294 -820 -341 -96 -15 -360 -20
-435 -8 -27 4 -70 11 -95 14 -55 8 -56 8 -155 32 -224 55 -454 167 -648 314
-102 78 -242 218 -315 316 -31 42 -59 79 -62 82 -12 11 -100 159 -130 219 -73
146 -150 395 -165 532 -3 31 -8 67 -11 80 -7 32 -6 337 1 369 3 14 8 45 11 70
3 25 12 74 21 110 8 36 16 73 18 83 7 31 16 59 47 147 90 249 245 490 428 665
86 83 115 108 185 159 239 176 505 286 800 329 113 17 100 16 260 18 125 1
163 -2 304 -25 324 -53 640 -210 901 -446 24 -22 47 -40 50 -40 3 0 75 70 160
156 l155 155 -60 56 c-279 257 -604 432 -970 525 -59 15 -57 14 -100 23 -154
30 -253 39 -460 39 -230 1 -336 -12 -539 -64 -433 -111 -847 -371 -1129 -710
-39 -47 -76 -91 -82 -97 -7 -9 -10 110 -10 420 1 237 -1 437 -3 444 -3 9 -61
12 -223 12 l-219 0 -2 -441 -3 -441 -46 59 c-58 74 -227 246 -294 299 -27 22
-52 42 -55 45 -3 3 -30 23 -60 45 -235 173 -529 311 -790 371 -69 15 -227 44
-271 49 -84 10 -428 13 -489 5z m391 -444 c50 -4 95 -8 99 -11 3 -2 24 -6 46
-9 60 -7 231 -52 308 -81 556 -209 968 -667 1111 -1235 13 -52 26 -117 30
-145 3 -27 10 -77 14 -110 20 -144 0 -442 -40 -589 -6 -23 -13 -51 -15 -63 -9
-46 -68 -202 -111 -293 -89 -184 -195 -332 -348 -486 -274 -276 -607 -443
-1005 -504 -97 -15 -361 -20 -435 -8 -27 4 -72 11 -100 14 -66 8 -223 48 -310
80 -487 176 -868 548 -1058 1030 -39 99 -92 297 -102 384 -4 30 -9 66 -11 80
-6 33 -6 329 -1 355 3 11 8 45 12 75 4 30 13 84 22 120 8 36 17 76 19 88 9 48
73 219 110 297 91 191 238 396 373 520 24 22 53 49 65 60 11 11 57 48 101 81
275 208 605 331 940 351 55 3 101 6 102 8 3 2 54 -1 184 -9z m84 -4896 c39 -6
81 -13 95 -15 14 -1 45 -8 70 -15 25 -7 50 -13 55 -14 69 -15 196 -63 311
-117 297 -140 578 -398 751 -689 76 -128 168 -342 187 -432 6 -26 13 -57 22
-90 40 -151 52 -470 24 -648 -39 -253 -139 -511 -278 -719 -69 -103 -64 -96
-133 -176 -67 -78 -180 -186 -249 -238 -30 -23 -57 -44 -60 -47 -8 -8 -111
-75 -145 -94 -16 -9 -37 -21 -45 -26 -63 -42 -259 -118 -394 -154 -223 -60
-530 -77 -721 -40 -10 2 -37 6 -60 10 -60 8 -179 42 -275 76 -499 179 -891
572 -1071 1073 -15 44 -33 100 -39 125 -26 106 -39 168 -45 215 -4 28 -9 61
-11 75 -6 36 -6 330 0 359 3 13 8 49 11 80 4 31 13 81 20 111 8 30 16 66 18
80 9 46 69 213 109 299 34 74 132 248 147 261 4 3 32 39 63 81 110 148 308
325 483 431 64 39 228 121 260 130 11 4 52 18 91 32 39 14 82 27 95 30 13 3
51 12 84 20 54 13 183 32 260 39 67 6 304 -2 370 -13z"/>
</g>
</svg>
